<mxfile host="app.diagrams.net" modified="2024-05-10T15:52:47.389Z" agent="Mozilla/5.0 (Windows NT 10.0; Win64; x64; rv:125.0) Gecko/20100101 Firefox/125.0" version="24.3.1" etag="F_hIJ9T_qzCCaBiw6KUm" type="github">
  <diagram name="PÃ¡gina-1" id="8_iWGk6n4GqzmLm5rv2b">
    <mxGraphModel>
      <root>
        <mxCell id="0" />
        <mxCell id="1" parent="0" />
      </root>
    </mxGraphModel>
  </diagram>
</mxfile>
